<?xml version="1.0" standalone="no"?>
<!DOCTYPE svg PUBLIC "-//W3C//DTD SVG 20010904//EN"
 "http://www.w3.org/TR/2001/REC-SVG-20010904/DTD/svg10.dtd">
<svg version="1.0" xmlns="http://www.w3.org/2000/svg"
 width="136.000000pt" height="136.000000pt" viewBox="0 0 136.000000 136.000000"
 preserveAspectRatio="xMidYMid meet">
<metadata>
Created by potrace 1.14, written by Peter Selinger 2001-2017
</metadata>
<g transform="translate(0.000000,136.000000) scale(0.100000,-0.100000)"
fill="#000000" stroke="none">
<path d="M667 1320 c-14 -11 -24 -26 -23 -33 6 -34 19 -57 35 -62 20 -6 71 13
71 26 0 4 3 14 6 23 6 15 -36 66 -54 66 -5 0 -21 -9 -35 -20z"/>
<path d="M240 1147 c-37 -19 -43 -52 -16 -83 18 -22 28 -26 50 -20 29 7 50 47
41 76 -8 26 -48 41 -75 27z"/>
<path d="M1095 1130 c-40 -45 30 -115 75 -75 25 23 30 50 13 74 -18 27 -64 27
-88 1z"/>
<path d="M589 1095 c-80 -22 -142 -58 -204 -120 -180 -180 -180 -451 0 -631
231 -231 614 -150 735 157 64 160 23 346 -105 475 -113 114 -277 161 -426 119z"/>
<path d="M46 697 c-36 -36 -20 -82 32 -92 25 -4 63 29 59 53 -9 55 -55 75 -91
39z"/>
<path d="M1281 696 c-28 -30 -20 -73 16 -87 39 -15 63 4 63 52 0 33 -4 41 -26
49 -32 13 -27 14 -53 -14z"/>
<path d="M238 273 c-19 -5 -32 -40 -26 -69 9 -47 90 -47 102 0 8 31 8 34 -14
56 -20 20 -29 22 -62 13z"/>
<path d="M1100 260 c-15 -15 -20 -29 -16 -43 3 -12 6 -25 6 -28 0 -3 11 -11
24 -17 34 -15 70 5 74 43 3 38 -6 52 -40 60 -20 5 -32 1 -48 -15z"/>
<path d="M672 93 c-21 -8 -34 -51 -22 -74 19 -35 109 -22 105 16 -3 26 -18 55
-28 56 -7 0 -19 2 -27 3 -8 2 -21 1 -28 -1z"/>
</g>
</svg>
